<svg width="157" height="157" viewBox="0 0 157 157" fill="none" xmlns="http://www.w3.org/2000/svg">
<path d="M71.935 4.74155C74.1901 -1.35278 82.8099 -1.35279 85.065 4.74154L102.096 50.768C102.805 52.684 104.316 54.1947 106.232 54.9037L152.258 71.935C158.353 74.1901 158.353 82.8099 152.258 85.065L106.232 102.096C104.316 102.805 102.805 104.316 102.096 106.232L85.065 152.258C82.8099 158.353 74.1901 158.353 71.935 152.258L54.9037 106.232C54.1947 104.316 52.684 102.805 50.768 102.096L4.74155 85.065C-1.35278 82.8099 -1.35279 74.1901 4.74154 71.935L50.768 54.9037C52.684 54.1947 54.1947 52.684 54.9037 50.768L71.935 4.74155Z" fill="#D9D9D9"/>
</svg>
