<svg width="157" height="179" viewBox="0 0 157 179" fill="none" xmlns="http://www.w3.org/2000/svg">
<path d="M74.0019 1.77228C76.6037 -0.409701 80.3963 -0.409696 82.9981 1.77228L113.149 27.0584C113.774 27.5823 114.485 27.993 115.251 28.2721L152.225 41.7407C155.416 42.9029 157.312 46.1874 156.723 49.5316L149.901 88.2863C149.759 89.0893 149.759 89.9107 149.901 90.7137L156.723 129.468C157.312 132.813 155.416 136.097 152.225 137.259L115.251 150.728C114.485 151.007 113.774 151.418 113.149 151.942L82.9981 177.228C80.3963 179.41 76.6037 179.41 74.0019 177.228L43.8508 151.942C43.2261 151.418 42.5146 151.007 41.7486 150.728L4.7746 137.259C1.58405 136.097 -0.312223 132.813 0.276529 129.468L7.09933 90.7137C7.24069 89.9107 7.24069 89.0893 7.09933 88.2863L0.276528 49.5316C-0.312224 46.1874 1.58406 42.9029 4.77461 41.7407L41.7486 28.2721C42.5146 27.993 43.2261 27.5823 43.8508 27.0584L74.0019 1.77228Z" fill="#D9D9D9"/>
</svg>
