<svg width="20" height="20" viewBox="0 0 500 500" fill="none" xmlns="http://www.w3.org/2000/svg">
<path d="M57.7687 5.58642C59.7014 -1.18557 69.2986 -1.18557 71.2313 5.58642L80.1152 36.7159C81.1519 40.3485 84.884 42.5033 88.5484 41.5848L119.949 33.7138C126.78 32.0015 131.579 40.3129 126.681 45.3726L104.164 68.6311C101.536 71.3452 101.536 75.6548 104.164 78.3689L126.681 101.627C131.579 106.687 126.78 114.999 119.949 113.286L88.5484 105.415C84.884 104.497 81.1519 106.651 80.1152 110.284L71.2313 141.414C69.2986 148.186 59.7014 148.186 57.7687 141.414L48.8848 110.284C47.8481 106.651 44.116 104.497 40.4516 105.415L9.05074 113.286C2.21971 114.999 -2.57891 106.687 2.31948 101.627L24.8364 78.3689C27.4641 75.6548 27.4641 71.3452 24.8364 68.6311L2.31949 45.3726C-2.5789 40.3129 2.2197 32.0015 9.05073 33.7138L40.4516 41.5848C44.116 42.5033 47.8481 40.3485 48.8848 36.7159L57.7687 5.58642Z" fill="#CAD8E5"/>
</svg>
